<svg xmlns="http://www.w3.org/2000/svg" width="32" height="32" viewBox="0 0 32 32" fill="none">
<path d="M3.45605 26.0318C3.45605 26.1401 3.54385 26.2279 3.65215 26.2279H18.195C20.6662 26.2279 23.0639 25.3869 24.9936 23.8431L27.3178 21.9838C27.952 21.4764 28.0549 20.5509 27.5474 19.9166C27.04 19.2824 26.1145 19.1795 25.4803 19.6869L23.1562 21.5462C22.841 21.7983 22.4422 21.9139 22.0387 21.9139H13.6529C13.5988 21.9139 13.5549 21.87 13.5549 21.8159C13.5549 21.7627 13.5972 21.7192 13.6504 21.7185C13.6861 21.718 13.7218 21.7178 13.7575 21.7178H17.5748C18.3871 21.7178 19.0455 21.0593 19.0455 20.2471C19.0455 19.4348 18.3871 18.7764 17.5748 18.7764H13.7575C11.9588 18.7764 10.1938 19.2221 8.61783 20.0664C8.08174 20.3537 7.49235 20.5412 6.88416 20.5412H3.65215C3.54385 20.5412 3.45605 20.629 3.45605 20.7373V26.0318Z" stroke="#333F51" stroke-width="1.56875" stroke-linecap="round" stroke-linejoin="round"/>
<path d="M12.8682 12.7816V12.877C12.8682 14.1404 13.8924 15.1647 15.1559 15.1647H16.1473C17.3687 15.1647 18.3588 14.1746 18.3588 12.9533C18.3588 11.9749 17.7159 11.1128 16.7782 10.8337L15.7965 10.5415L14.6179 10.2141C13.692 9.95694 13.0512 9.1139 13.0512 8.15293C13.0512 6.97145 14.009 6.01367 15.1904 6.01367H15.888C17.1515 6.01367 18.1758 7.03794 18.1758 8.30143V8.39676" stroke="#333F51" stroke-width="1.56875" stroke-linecap="round" stroke-linejoin="round"/>
<path d="M15.6143 6.01374V5.09863" stroke="#333F51" stroke-width="1.56875" stroke-linecap="round" stroke-linejoin="round"/>
<path d="M15.6143 16.0792V15.1641" stroke="#333F51" stroke-width="1.56875" stroke-linecap="round" stroke-linejoin="round"/>
</svg>