<svg xmlns="http://www.w3.org/2000/svg" width="32" height="32" viewBox="0 0 32 32" fill="none">
<path d="M3.1377 9.41231C3.1377 8.97911 3.48887 8.62793 3.92207 8.62793H27.4533C27.8865 8.62793 28.2377 8.97911 28.2377 9.4123V21.9623C28.2377 22.3955 27.8865 22.7467 27.4533 22.7467H3.92207C3.48887 22.7467 3.1377 22.3955 3.1377 21.9623V9.41231Z" stroke="#333F51" stroke-width="1.56875" stroke-linecap="round" stroke-linejoin="round"/>
<path d="M7.03803 22.7471H3.92207C3.48887 22.7471 3.1377 22.3959 3.1377 21.9627V18.8467C3.26646 18.8325 3.39732 18.8252 3.52988 18.8252C5.47928 18.8252 7.05957 20.4055 7.05957 22.3549C7.05957 22.4874 7.05226 22.6183 7.03803 22.7471Z" stroke="#333F51" stroke-width="1.56875" stroke-linecap="round" stroke-linejoin="round"/>
<path d="M7.03803 8.62793H3.92207C3.48887 8.62793 3.1377 8.97911 3.1377 9.41231V12.5283C3.26646 12.5425 3.39732 12.5498 3.52988 12.5498C5.47928 12.5498 7.05957 10.9695 7.05957 9.02012C7.05957 8.88755 7.05226 8.7567 7.03803 8.62793Z" stroke="#333F51" stroke-width="1.56875" stroke-linecap="round" stroke-linejoin="round"/>
<path d="M24.337 8.62793H27.4529C27.8861 8.62793 28.2373 8.97911 28.2373 9.4123V12.5283C28.1085 12.5425 27.9777 12.5498 27.8451 12.5498C25.8957 12.5498 24.3154 10.9695 24.3154 9.02012C24.3154 8.88755 24.3227 8.7567 24.337 8.62793Z" stroke="#333F51" stroke-width="1.56875" stroke-linecap="round" stroke-linejoin="round"/>
<path d="M28.2373 18.8467V21.9627C28.2373 22.3959 27.8861 22.7471 27.4529 22.7471H24.337C24.3227 22.6183 24.3154 22.4874 24.3154 22.3549C24.3154 20.4055 25.8957 18.8252 27.8451 18.8252C27.9777 18.8252 28.1085 18.8325 28.2373 18.8467Z" stroke="#333F51" stroke-width="1.56875" stroke-linecap="round" stroke-linejoin="round"/>
<path d="M7.61419 14.5973C7.98056 14.3152 8.4909 14.3152 8.85727 14.5973C9.10785 14.7902 9.25466 15.0885 9.25466 15.4047V15.9704C9.25466 16.2866 9.10785 16.5849 8.85727 16.7778C8.4909 17.0599 7.98056 17.0599 7.61419 16.7778C7.36361 16.5849 7.2168 16.2866 7.2168 15.9704V15.4047C7.2168 15.0885 7.36361 14.7902 7.61419 14.5973Z" stroke="#333F51" stroke-width="1.5" stroke-linecap="round" stroke-linejoin="round"/>
<path d="M13.9129 12.4168C15.012 11.5707 16.543 11.5707 17.6421 12.4168C18.3939 12.9955 18.8343 13.8904 18.8343 14.839V16.5363C18.8343 17.4849 18.3939 18.3798 17.6421 18.9585C16.543 19.8046 15.012 19.8046 13.9129 18.9585C13.1612 18.3798 12.7207 17.4849 12.7207 16.5363V14.839C12.7207 13.8904 13.1612 12.9955 13.9129 12.4168Z" stroke="#333F51" stroke-width="1.5" stroke-linecap="round" stroke-linejoin="round"/>
<path d="M22.5175 14.5973C22.8839 14.3152 23.3942 14.3152 23.7606 14.5973C24.0112 14.7902 24.158 15.0885 24.158 15.4047V15.9704C24.158 16.2866 24.0112 16.5849 23.7606 16.7778C23.3942 17.0599 22.8839 17.0599 22.5175 16.7778C22.2669 16.5849 22.1201 16.2866 22.1201 15.9704V15.4047C22.1201 15.0885 22.2669 14.7902 22.5175 14.5973Z" stroke="#333F51" stroke-width="1.56875" stroke-linecap="round" stroke-linejoin="round"/>
</svg>